<?xml version="1.0" standalone="no"?>
<!DOCTYPE svg PUBLIC "-//W3C//DTD SVG 20010904//EN"
 "http://www.w3.org/TR/2001/REC-SVG-20010904/DTD/svg10.dtd">
<svg version="1.0" xmlns="http://www.w3.org/2000/svg"
 width="373.000000pt" height="495.000000pt" viewBox="0 0 373.000000 495.000000"
 preserveAspectRatio="xMidYMid meet">

<g transform="translate(0.000000,495.000000) scale(0.100000,-0.100000)"
fill="#000000" stroke="none">
<path d="M462 4855 c-4 -5 -8 -1047 -10 -2314 -2 -1864 0 -2306 10 -2313 16
-10 269 -10 651 -1 l287 6 0 497 c0 273 3 713 7 978 l6 482 36 0 c40 0 51 -6
67 -35 6 -11 83 -146 171 -300 89 -154 170 -297 182 -318 35 -62 57 -100 90
-155 17 -29 31 -54 31 -56 0 -2 30 -55 66 -117 37 -63 78 -134 92 -159 13 -25
57 -101 97 -170 40 -69 83 -145 97 -170 14 -25 34 -61 45 -80 12 -19 47 -80
78 -135 32 -55 66 -115 76 -133 11 -17 28 -47 38 -66 47 -83 28 -76 201 -76
299 0 860 13 860 20 0 4 -25 49 -55 99 -30 51 -55 93 -55 95 0 2 -17 33 -38
67 -21 35 -52 89 -69 119 -16 30 -53 93 -80 140 -28 47 -61 105 -75 130 -14
25 -34 61 -45 80 -12 19 -56 96 -98 170 -103 180 -107 187 -144 248 -17 29
-31 55 -31 58 0 2 -11 21 -23 42 -42 65 -133 225 -172 297 -20 39 -40 75 -45
80 -8 11 -120 203 -181 312 -12 21 -30 53 -41 71 -11 17 -18 37 -16 42 2 6 51
30 110 54 475 194 738 498 814 942 22 131 15 421 -14 549 -23 102 -73 248
-103 303 -12 20 -31 55 -42 77 -35 64 -139 195 -213 266 -245 233 -515 327
-1069 369 -185 14 -1485 19 -1493 5z m1553 -859 c241 -31 371 -110 449 -275
30 -64 31 -71 31 -196 0 -158 -19 -215 -97 -300 -63 -70 -142 -108 -291 -142
-103 -24 -136 -26 -409 -30 l-298 -5 0 384 c0 210 3 427 7 481 l6 97 246 0
c152 0 288 -6 356 -14z"/>
</g>
</svg>
